<svg width="20" height="15" viewBox="0 0 20 15" fill="none" xmlns="http://www.w3.org/2000/svg">
<path d="M17.5333 3.74668H8.73333C8.28889 3.74668 7.86667 3.88001 7.46667 4.14668C7.37778 3.48001 7.1 2.93557 6.63333 2.51335C6.16667 2.09112 5.62222 1.88001 5 1.88001C4.51111 1.88001 4.06667 1.99112 3.66667 2.21335V1.21335C3.66667 1.03557 3.61111 0.891124 3.5 0.780012C3.38889 0.668901 3.24444 0.613346 3.06667 0.613346H0.6C0.422222 0.613346 0.277778 0.668901 0.166667 0.780012C0.0555556 0.891124 0 1.03557 0 1.21335V13.7467C0 13.9245 0.0555556 14.0689 0.166667 14.18C0.277778 14.2911 0.422222 14.3467 0.6 14.3467H3.06667C3.24444 14.3467 3.38889 14.2911 3.5 14.18C3.61111 14.0689 3.66667 13.9245 3.66667 13.7467V11.8133H16.3333V13.7467C16.3333 13.9245 16.3889 14.0689 16.5 14.18C16.6111 14.2911 16.7556 14.3467 16.9333 14.3467H19.4C19.5778 14.3467 19.7222 14.2911 19.8333 14.18C19.9444 14.0689 20 13.9245 20 13.7467V6.21335C20 5.54668 19.7556 4.9689 19.2667 4.48001C18.7778 3.99112 18.2 3.74668 17.5333 3.74668ZM5 3.01335C5.35556 3.01335 5.65556 3.14668 5.9 3.41335C6.14444 3.68001 6.26667 3.99112 6.26667 4.34668C6.26667 4.70224 6.14444 5.00223 5.9 5.24668C5.65556 5.49112 5.35556 5.61335 5 5.61335C4.64444 5.61335 4.33333 5.49112 4.06667 5.24668C3.8 5.00223 3.66667 4.70224 3.66667 4.34668C3.66667 3.99112 3.8 3.68001 4.06667 3.41335C4.33333 3.14668 4.64444 3.01335 5 3.01335ZM3.66667 6.41335C4.06667 6.68001 4.5 6.81335 4.96667 6.81335C5.43333 6.81335 5.86667 6.68001 6.26667 6.41335V8.14668H3.66667V6.41335ZM18.8 13.1467H17.4667V11.2133C17.4667 11.08 17.4111 10.9578 17.3 10.8467C17.1889 10.7356 17.0667 10.68 16.9333 10.68H3.06667C2.93333 10.68 2.81111 10.7356 2.7 10.8467C2.58889 10.9578 2.53333 11.08 2.53333 11.2133V13.1467H1.2V1.81335H2.53333V8.74668C2.53333 8.88001 2.58889 9.01335 2.7 9.14668C2.81111 9.28001 2.93333 9.34668 3.06667 9.34668H18.8V13.1467ZM18.8 8.14668H7.46667V6.21335C7.46667 5.85779 7.58889 5.55779 7.83333 5.31335C8.07778 5.0689 8.37778 4.94668 8.73333 4.94668H17.5333C17.8889 4.94668 18.1889 5.0689 18.4333 5.31335C18.6778 5.55779 18.8 5.85779 18.8 6.21335V8.14668Z" fill="#1A1A1A"/>
</svg>
