<svg width="18" height="21" viewBox="0 0 18 21" fill="none" xmlns="http://www.w3.org/2000/svg">
<path d="M15.1333 2.89332C14.2889 2.09332 13.3444 1.4711 12.3 1.02665C11.2555 0.582207 10.1555 0.359983 8.99998 0.359983C7.84442 0.359983 6.73331 0.582207 5.66665 1.02665C4.59998 1.4711 3.66665 2.09332 2.86665 2.89332C2.06665 3.69332 1.44442 4.62665 0.99998 5.69332C0.555535 6.75998 0.333313 7.8711 0.333313 9.02665C0.333313 10.1822 0.555535 11.2822 0.99998 12.3267C1.44442 13.3711 2.06665 14.3155 2.86665 15.16L7.46665 19.76C7.86665 20.16 8.36665 20.36 8.96665 20.36C9.56665 20.36 10.0889 20.16 10.5333 19.76L15.1333 15.16C15.9333 14.3155 16.5555 13.3711 17 12.3267C17.4444 11.2822 17.6666 10.1822 17.6666 9.02665C17.6666 7.8711 17.4444 6.75998 17 5.69332C16.5555 4.62665 15.9333 3.69332 15.1333 2.89332ZM14.2666 14.2933L9.66665 18.8933C9.48887 19.0711 9.26665 19.16 8.99998 19.16C8.73331 19.16 8.48887 19.0711 8.26665 18.8933L3.66665 14.2933C2.95554 13.5822 2.4222 12.7711 2.06665 11.86C1.71109 10.9489 1.53331 9.99332 1.53331 8.99332C1.53331 7.99332 1.71109 7.03776 2.06665 6.12665C2.4222 5.21554 2.95554 4.41554 3.66665 3.72665C4.37776 3.03776 5.18887 2.50443 6.09998 2.12665C7.01109 1.74887 7.96665 1.55998 8.96665 1.55998C9.96665 1.55998 10.9222 1.74887 11.8333 2.12665C12.7444 2.50443 13.5555 3.02665 14.2666 3.69332C15.2444 4.6711 15.9 5.80443 16.2333 7.09332C16.5666 8.38221 16.5666 9.6711 16.2333 10.96C15.9 12.2489 15.2444 13.36 14.2666 14.2933ZM8.99998 5.89332C8.15554 5.89332 7.4222 6.20443 6.79998 6.82665C6.17776 7.44887 5.86665 8.18221 5.86665 9.02665C5.86665 9.8711 6.17776 10.5933 6.79998 11.1933C7.4222 11.7933 8.15554 12.0933 8.99998 12.0933C9.84442 12.0933 10.5666 11.7933 11.1666 11.1933C11.7666 10.5933 12.0666 9.8711 12.0666 9.02665C12.0666 8.18221 11.7666 7.44887 11.1666 6.82665C10.5666 6.20443 9.84442 5.89332 8.99998 5.89332ZM8.99998 10.96C8.46665 10.96 8.01109 10.7711 7.63331 10.3933C7.25554 10.0155 7.06665 9.55999 7.06665 9.02665C7.06665 8.49332 7.25554 8.03776 7.63331 7.65998C8.01109 7.28221 8.46665 7.09332 8.99998 7.09332C9.53331 7.09332 9.98887 7.28221 10.3666 7.65998C10.7444 8.03776 10.9333 8.49332 10.9333 9.02665C10.9333 9.55999 10.7444 10.0155 10.3666 10.3933C9.98887 10.7711 9.53331 10.96 8.99998 10.96Z" fill="#1A1A1A"/>
</svg>
